<?xml version="1.0" encoding="utf-8"?>
<!-- Generator: Adobe Illustrator 22.0.1, SVG Export Plug-In . SVG Version: 6.00 Build 0)  -->
<svg version="1.1" id="Layer_1" xmlns="http://www.w3.org/2000/svg" xmlns:xlink="http://www.w3.org/1999/xlink" x="0px" y="0px"
	 viewBox="0 0 69 70" style="enable-background:new 0 0 69 70;" xml:space="preserve">
<style type="text/css">
	.st0{fill:#0C77B9;}
</style>
<title>ico_warning_sign_red</title>
<desc>Created with Sketch.</desc>
<g id="New:-Hard-Soft-Error">
	<g id="RWB-IPAD-Error-popup-BD-SoftContinue" transform="translate(-480.000000, -144.000000)">
		<g id="ico_warning_sign_red" transform="translate(480.000000, 143.000000)">
			<g id="Group" transform="translate(32.000000, 13.844000)">
				<g id="path-2_1_">
					<path id="Shape" class="st0" d="M1.9,25c-0.6,0-1-0.4-1-1V1c0-0.6,0.4-1,1-1s1,0.4,1,1v23C2.9,24.6,2.5,25,1.9,25z"/>
				</g>
			</g>
			<g id="Group_1_" transform="translate(32.000000, 45.844000)">
				<g id="Shape_34_copy_1_">
					<path id="Shape_1_" class="st0" d="M1.9,10c-0.6,0-1-0.4-1-1V1c0-0.6,0.4-1,1-1s1,0.4,1,1v8C2.9,9.6,2.5,10,1.9,10z"/>
				</g>
			</g>
			<g id="Group_2_" transform="translate(0.000000, 0.844000)">
				<g id="path_1_">
					<path id="Shape_2_" class="st0" d="M33.7,69.2c-8.9,0-17.4-3.5-23.7-9.7C3.6,53.2,0,44.7,0,35.7c0-0.2,0-0.4,0-0.6
						C-0.1,15.8,15.2,0.2,33.9,0.2c19,0,35,16,35,34.8c0,10.8-5.5,18.8-10.1,23.6c-6.5,6.7-15.5,10.6-24.9,10.6
						C33.9,69.2,33.8,69.2,33.7,69.2z M33.9,2.2c-17.6,0-32,14.7-32,32.8v0.6C2,44.1,5.3,52.1,11.4,58s14,9.2,22.5,9.2l0,0
						c8.8,0,17.3-3.6,23.4-10c4.4-4.5,9.6-12,9.6-22.2C66.9,17.2,51.8,2.2,33.9,2.2z"/>
				</g>
			</g>
			<g id="Group_3_" transform="translate(5.000000, 14.844000)">
				<g id="Ellipse_8_copy_1_">
					<path id="Shape_3_" class="st0" d="M8.9,39.5c-0.1,0-0.2,0-0.3-0.1C2.9,34.1,0.4,28.6,0.4,21C0.3,13.5,3.2,6,8.5,0.6
						c0.2-0.2,0.5-0.2,0.7,0s0.2,0.5,0,0.7c-5.1,5.2-8,12.4-7.9,19.6c0,7.3,2.3,12.6,7.8,17.6c0.2,0.2,0.2,0.5,0,0.7
						C9.2,39.5,9,39.5,8.9,39.5z"/>
				</g>
			</g>
		</g>
	</g>
</g>
</svg>
