<?xml version="1.0" encoding="utf-8"?>
<!-- Generator: Adobe Illustrator 19.2.1, SVG Export Plug-In . SVG Version: 6.00 Build 0)  -->
<svg version="1.1" id="ico_info_sign" xmlns="http://www.w3.org/2000/svg" xmlns:xlink="http://www.w3.org/1999/xlink" x="0px"
	 y="0px" viewBox="0 0 60.1 60.1" style="enable-background:new 0 0 60.1 60.1;" xml:space="preserve">
<style type="text/css">
	.st0{fill:none;stroke:#B3B3B3;stroke-width:2;stroke-linecap:round;}
	.st1{fill:none;stroke:#B3B3B3;stroke-linecap:round;}
</style>
<g transform="translate(-321.969 -398.938)">
	<path id="path-2_1_" class="st0" d="M351.6,411.1v20"/>
</g>
<g transform="translate(-321.969 -398.938)">
	<path id="Shape_34_copy_1_" class="st0" d="M351.6,445.8v-6.9"/>
</g>
<g transform="translate(-321.969 -398.938)">
	<path id="path_1_" class="st0" d="M351.6,400c16.2,0.1,29.3,13.2,29.5,29.3c0,7.8-3.5,14.6-8.5,19.8c-5.5,5.7-13,8.9-20.9,8.9
		c-15.8,0.2-28.6-12.4-28.7-28.1c0-0.2,0-0.3,0-0.5C323,413.3,335.6,400,351.6,400z"/>
</g>
<g transform="translate(-321.969 -398.938)">
	<path id="Ellipse_8_copy_1_" class="st1" d="M334.3,445c-4.5-4.2-6.9-8.7-6.9-15.6c-0.2-6.5,2.3-12.8,6.9-17.4"/>
</g>
</svg>
